<svg height="512pt" viewBox="-32 0 512 512.00001" width="512pt" xmlns="http://www.w3.org/2000/svg"><path d="m189.140625 512c-61.4375 0-117.308594-28.566406-153.269531-78.378906-47.828125-66.21875-47.828125-155.191406 0-221.398438l153.269531-212.222656 153.273437 212.242188c47.828126 66.203124 47.828126 155.175781 0 221.394531-35.976562 49.796875-91.832031 78.363281-153.273437 78.363281zm0 0" fill="#40a2e7"/><path d="m366.34375 257.277344c-10.269531-2.3125-20.910156-3.636719-31.875-3.636719-80.140625 0-145.328125 65.203125-145.328125 145.328125 0 24.011719 6.054687 46.550781 16.4375 66.496094-.484375-.9375-1.0625-1.824219-1.53125-2.777344-4.957031.371094-9.882813.871094-14.921875.871094-61.441406 0-117.308594-28.566406-153.269531-78.378906-18.925781-26.191407-30.226563-55.96875-34.183594-86.484376-6.023437 46.582032 5.28125 94.914063 34.183594 134.925782 35.976562 49.796875 91.847656 78.378906 153.269531 78.378906 16.277344 0 32.117188-2.132812 47.34375-6.007812-3.46875-3.179688-6.765625-6.539063-9.914062-10.042969 3.148437 3.488281 6.445312 6.863281 9.914062 10.042969 42.242188-10.753907 79.476562-35.75 105.925781-72.355469 37.640625-52.105469 45.539063-118.261719 23.949219-176.359375zm0 0" fill="#168de2"/><path d="m168.183594 447.410156c-40.433594 0-77.21875-18.796875-100.9375-51.574218-15.46875-21.410157-23.640625-46.617188-23.640625-72.9375l.050781-3.699219 32.292969.953125-.046875 2.746094c0 19.472656 6.054687 38.15625 17.519531 54.011718 17.550781 24.269532 44.792969 38.191406 74.761719 38.191406zm-87.34375-154.191406-30.597656-10.398438c3.988281-11.691406 9.703124-22.75 17.003906-32.84375l26.175781 18.925782c-5.425781 7.507812-9.65625 15.679687-12.582031 24.316406zm0 0" fill="#fff"/><path d="m447.5 398.96875c0 62.425781-50.605469 113.03125-113.03125 113.03125s-113.03125-50.605469-113.03125-113.03125 50.605469-113.03125 113.03125-113.03125 113.03125 50.605469 113.03125 113.03125zm0 0" fill="#e76e54"/><path d="m380.132812 376.136719-22.832031-22.832031-22.832031 22.832031-22.832031-22.832031-22.832031 22.832031 22.832031 22.832031-22.832031 22.832031 22.832031 22.832031 22.832031-22.832031 22.832031 22.832031 22.832031-22.832031-22.832031-22.832031zm0 0" fill="#fff"/></svg>