<svg width="61" height="91" viewBox="0 0 61 91" fill="none" xmlns="http://www.w3.org/2000/svg">
<path d="M30.5 89.5L14 56H46L30.5 89.5Z" fill="#6E92EF" stroke="black"/>
<rect x="0.5" y="0.5" width="60" height="60" rx="30" fill="#6E92EF" stroke="black"/>
<path d="M28.6886 41.0729C28.7461 39.5324 28.2012 38.0632 27.1537 36.934C26.066 35.7626 24.5248 35.0903 22.9248 35.0903C21.466 35.0903 20.073 35.6366 19.004 36.6294C17.8748 37.6769 17.2212 39.1004 17.1631 40.6402C17.1049 42.1799 17.6498 43.6498 18.6973 44.7783C19.785 45.9511 21.3262 46.6234 22.9262 46.6234C22.9262 46.6234 22.9262 46.6234 22.9269 46.6234C24.385 46.6234 25.7773 46.0772 26.8476 45.0843C27.9769 44.0368 28.6304 42.612 28.6886 41.0729Z" fill="white"/>
<path d="M50.9628 16.2126C50.5626 15.5964 49.9582 15.2433 49.3053 15.2433C48.712 15.2433 48.1547 15.5307 47.7365 16.0534L43.482 21.372C42.924 22.0699 41.7774 22.9962 40.9778 23.3957L37.8269 24.9708L39.9614 22.7608C40.714 21.9819 41.6272 20.5869 42.0412 19.5857L44.8902 12.69C45.3797 11.5047 45.0197 9.90119 44.0698 9.03991L43.5471 8.56496C43.14 8.19524 42.6733 8 42.1984 8C41.4382 8 40.7846 8.50957 40.4918 9.33069L37.8955 16.6142C37.5971 17.4505 36.8057 18.6781 36.1674 19.2956L31.1333 24.1608C31.0627 24.2293 31.0073 24.3068 30.9464 24.3816C30.8404 24.4474 30.7394 24.5215 30.6466 24.6087L25.1196 29.8415C25.0476 29.8574 24.9763 29.8615 24.9036 29.8865L19.6348 31.697C18.8393 31.9704 17.6955 32.5852 17.0309 33.0962L11.2387 37.5514C10.3594 38.2286 10.1213 39.5447 10.7084 40.4863L11.04 41.0187C11.398 41.5927 12.0024 41.9361 12.6566 41.9361C13.0963 41.9361 13.5165 41.7845 13.8724 41.4978L18.1179 38.079C18.6558 37.6456 19.6563 37.0751 20.3015 36.8328L22.4506 36.0269L26.865 40.7854C26.892 40.8145 26.9238 40.8352 26.9522 40.8622L26.6102 43.6732C26.5264 44.3579 26.2073 45.465 25.9137 46.0888L23.5902 51.0217C23.3513 51.5285 23.3361 52.1046 23.5493 52.6017C23.7626 53.0988 24.1904 53.4844 24.7236 53.661L25.3183 53.8576C25.5343 53.9296 25.76 53.9649 25.9905 53.9649C26.8698 53.9649 27.6958 53.4366 28.0454 52.6515L31.0108 45.9732C31.3521 45.204 31.6775 43.9453 31.7523 43.1089L32.1857 38.2369C32.1877 38.2154 32.1843 38.1953 32.185 38.1739L37.7508 32.1754C37.8498 32.0687 37.9342 31.9524 38.0076 31.8306C38.027 31.8181 38.0478 31.8091 38.0665 31.7967L43.8081 27.8925C44.6915 27.2909 45.9059 26.1672 46.5726 25.3343L50.8271 20.015C51.633 19.0083 51.714 17.3723 51.012 16.2909L50.9628 16.2126Z" fill="white"/>
<path d="M52.6153 30.3701C50.3091 30.3701 49.0823 31.2917 48.0964 32.0318C47.2406 32.675 46.6224 33.1395 45.2404 33.1395C43.8585 33.1395 43.2402 32.675 42.3845 32.0318C41.3986 31.2917 40.1711 30.3701 37.8656 30.3701C35.5607 30.3701 34.3339 31.2917 33.3487 32.0325C32.4936 32.675 31.8761 33.1395 30.4955 33.1395C29.1143 33.1395 28.4967 32.675 27.641 32.0325C26.6551 31.2917 25.4282 30.3701 23.1234 30.3701C20.8186 30.3701 19.5918 31.2917 18.6065 32.0325C17.7515 32.675 17.1339 33.1395 15.7534 33.1395C14.3735 33.1395 13.7567 32.675 12.9016 32.0325C11.9164 31.2917 10.6902 30.3701 8.38543 30.3701C7.62108 30.3701 7.00073 30.9905 7.00073 31.7548C7.00073 32.5192 7.62108 33.1395 8.38543 33.1395C9.76527 33.1395 10.3828 33.6041 11.2379 34.2466C12.2231 34.9874 13.4493 35.9089 15.7534 35.9089C18.0582 35.9089 19.285 34.9874 20.2703 34.2466C21.1253 33.6041 21.7429 33.1395 23.1234 33.1395C24.5046 33.1395 25.1222 33.6041 25.978 34.2466C26.9639 34.9874 28.1907 35.9089 30.4955 35.9089C32.8003 35.9089 34.0272 34.9874 35.0124 34.2466C35.8674 33.6041 36.485 33.1395 37.8656 33.1395C39.2475 33.1395 39.8657 33.6041 40.7215 34.2473C41.7074 34.9874 42.9349 35.9089 45.2404 35.9089C47.5466 35.9089 48.7735 34.9874 49.7594 34.2473C50.6151 33.6041 51.2334 33.1395 52.6153 33.1395C53.3797 33.1395 54 32.5192 54 31.7548C54 30.9905 53.3804 30.3701 52.6153 30.3701Z" fill="black"/>
<path d="M8.38469 26.0077C9.76454 26.0077 10.3821 26.4716 11.2372 27.1148C12.2217 27.8549 13.4485 28.7771 15.7526 28.7771C18.0575 28.7771 19.2843 27.8549 20.2695 27.1148C21.1246 26.4716 21.7421 26.0077 23.1227 26.0077C24.5039 26.0077 25.1215 26.4723 25.9772 27.1148C26.9631 27.8556 28.19 28.7771 30.4948 28.7771C32.7996 28.7771 34.0265 27.8549 35.0117 27.1148C35.8667 26.4716 36.485 26.0077 37.8655 26.0077C39.2474 26.0077 39.8657 26.4723 40.7215 27.1148C41.7074 27.8556 42.9342 28.7771 45.2404 28.7771C47.5466 28.7771 48.7734 27.8556 49.7593 27.1148C50.6158 26.4723 51.234 26.0077 52.6153 26.0077C53.3796 26.0077 54 25.3874 54 24.623C54 23.8587 53.3796 23.2383 52.6153 23.2383C50.3091 23.2383 49.0822 24.1598 48.0963 24.9006C47.2406 25.5431 46.6223 26.0077 45.2404 26.0077C43.8585 26.0077 43.2402 25.5431 42.3845 24.9006C41.3986 24.1598 40.171 23.2383 37.8655 23.2383C35.5607 23.2383 34.3339 24.1605 33.3486 24.9006C32.4929 25.5438 31.8753 26.0077 30.4948 26.0077C29.1136 26.0077 28.496 25.5431 27.6402 24.9006C26.6543 24.1598 25.4275 23.2383 23.1227 23.2383C20.8179 23.2383 19.591 24.1605 18.6058 24.9006C17.7508 25.5431 17.1325 26.0077 15.7526 26.0077C14.3728 26.0077 13.7559 25.5438 12.9009 24.9006C11.9157 24.1605 10.6888 23.2383 8.38469 23.2383C7.62034 23.2383 7 23.8587 7 24.623C7 25.3874 7.61965 26.0077 8.38469 26.0077Z" fill="black"/>
</svg>
