<svg id="Capa_1" enable-background="new 0 0 510 510" height="512" viewBox="0 0 510 510" width="512" xmlns="http://www.w3.org/2000/svg"><path d="m230.277 269.151-55.903-60.868-22.096 20.293 55.903 60.868c5.608 6.105 15.097 6.501 21.194.901 6.102-5.603 6.505-15.092.902-21.194z" fill="#918291"/><path d="m310.45 194.22-16.08 103.63c-3.23 23.03-18.78 41.88-39.37 50.21-7.36 2.98-15.36 4.61-23.68 4.61h-91.76v-30h91.76c9.13 0 17.54-3.72 23.68-9.8 5.11-5.04 8.64-11.73 9.68-19.26l.03-.24 16.09-103.75z" fill="#918291"/><path d="m310.45 194.22-16.08 103.63c-3.23 23.03-18.78 41.88-39.37 50.21v-35.19c5.11-5.04 8.64-11.73 9.68-19.26l.03-.24 16.09-103.75z" fill="#685e68"/><path d="m489 133.71-7.46 70.89c-1.59 15.14-14.36 26.64-29.58 26.64h-252.25c-13.587 0-24.771 10.263-26.27 23.42l-17.19 149.41c-1.85 16.09-15.47 28.23-31.67 28.23h-6.32l-54.26-159.84-64-77.23v-37.97l255-23.55z" fill="#685e68"/><path d="m489 133.71-7.46 70.89c-1.59 15.14-14.36 26.64-29.58 26.64h-196.96v-97.53z" fill="#40383f"/><path d="m142.67 238.79-24.41 193.51h-69.24c-19.03 0-33.83-16.58-31.67-35.49l14.88-130.23c.5-4.43-.96-8.87-4.01-12.13l-24.11-25.75c-2.64-2.82-4.11-6.54-4.11-10.4v-23.07h104.26c23.3 0 41.32 20.44 38.41 43.56z" fill="#ffb64c"/><path d="m510 88.33v58.3c0 5.87-4.76 10.63-10.62 10.63h-499.38v-47.68c0-17.61 14.27-31.88 31.88-31.88h467.5c5.86 0 10.62 4.76 10.62 10.63z" fill="#918291"/><g fill="#685e68"><path d="m510 88.33v58.3c0 5.87-4.76 10.63-10.62 10.63h-244.38v-79.56h244.38c5.86 0 10.62 4.76 10.62 10.63z"/><path d="m83.399 272.46c9.004 0 15.979 7.878 14.888 16.816l-12.237 100.274c-1.01 8.21-8.47 14.08-16.71 13.07-8.22-1-14.08-8.48-13.07-16.71l12.241-100.269c.918-7.525 7.307-13.181 14.888-13.181z"/></g></svg>