<?xml version="1.0" encoding="iso-8859-1"?>
<!-- Generator: Adobe Illustrator 17.1.0, SVG Export Plug-In . SVG Version: 6.00 Build 0)  -->
<!DOCTYPE svg PUBLIC "-//W3C//DTD SVG 1.1//EN" "http://www.w3.org/Graphics/SVG/1.1/DTD/svg11.dtd">
<svg version="1.1" id="Capa_1" xmlns="http://www.w3.org/2000/svg" xmlns:xlink="http://www.w3.org/1999/xlink" x="0px" y="0px"
	 viewBox="0 0 85.592 85.592" style="enable-background:new 0 0 85.592 85.592;" xml:space="preserve">
<g>
	<path d="M29.667,71.576c0.083-2.225-0.704-4.347-2.217-5.978c-1.571-1.692-3.797-2.663-6.108-2.663
		c-2.107,0-4.119,0.789-5.663,2.223c-1.631,1.513-2.575,3.569-2.659,5.793c-0.084,2.224,0.703,4.347,2.216,5.977
		c1.571,1.694,3.797,2.665,6.108,2.665c0,0,0,0,0.001,0c2.106,0,4.117-0.789,5.663-2.223C28.639,75.857,29.583,73.799,29.667,71.576
		z"/>
	<path d="M65.812,31.065c-0.578-0.89-1.451-1.4-2.394-1.4c-0.857,0-1.662,0.415-2.266,1.17l-6.145,7.682
		c-0.806,1.008-2.462,2.346-3.617,2.923l-4.551,2.275l3.083-3.192c1.087-1.125,2.406-3.14,3.004-4.586l4.115-9.96
		c0.707-1.712,0.187-4.028-1.185-5.272l-0.755-0.686c-0.588-0.534-1.262-0.816-1.948-0.816c-1.098,0-2.042,0.736-2.465,1.922
		l-3.75,10.52c-0.431,1.208-1.574,2.981-2.496,3.873l-7.271,7.027c-0.102,0.099-0.182,0.211-0.27,0.319
		c-0.153,0.095-0.299,0.202-0.433,0.328l-7.983,7.558c-0.104,0.023-0.207,0.029-0.312,0.065l-7.61,2.615
		c-1.149,0.395-2.801,1.283-3.761,2.021l-8.366,6.435c-1.27,0.978-1.614,2.879-0.766,4.239l0.479,0.769
		c0.517,0.829,1.39,1.325,2.335,1.325c0.635,0,1.242-0.219,1.756-0.633l6.132-4.938c0.777-0.626,2.222-1.45,3.154-1.8l3.104-1.164
		l6.376,6.873c0.039,0.042,0.085,0.072,0.126,0.111l-0.494,4.06c-0.121,0.989-0.582,2.588-1.006,3.489l-3.356,7.125
		c-0.345,0.732-0.367,1.564-0.059,2.282s0.926,1.275,1.696,1.53l0.859,0.284c0.312,0.104,0.638,0.155,0.971,0.155
		c1.27,0,2.463-0.763,2.968-1.897l4.283-9.646c0.493-1.111,0.963-2.929,1.071-4.137l0.626-7.037c0.003-0.031-0.002-0.06-0.001-0.091
		l8.039-8.664c0.143-0.154,0.265-0.322,0.371-0.498c0.028-0.018,0.058-0.031,0.085-0.049l8.293-5.639
		c1.276-0.869,3.03-2.492,3.993-3.695l6.145-7.683c1.164-1.454,1.281-3.817,0.267-5.379L65.812,31.065z"/>
	<path d="M76.387,10.301c-3.331,0-5.103,1.331-6.527,2.4c-1.236,0.929-2.129,1.6-4.125,1.6c-1.996,0-2.889-0.671-4.125-1.6
		c-1.424-1.069-3.197-2.4-6.527-2.4c-3.329,0-5.101,1.331-6.524,2.401c-1.235,0.928-2.127,1.599-4.121,1.599
		c-1.995,0-2.887-0.671-4.123-1.599c-1.424-1.07-3.196-2.401-6.525-2.401c-3.329,0-5.101,1.331-6.524,2.401
		c-1.235,0.928-2.127,1.599-4.121,1.599c-1.993,0-2.884-0.671-4.119-1.599c-1.423-1.07-3.194-2.401-6.523-2.401
		c-1.104,0-2,0.896-2,2s0.896,2,2,2c1.993,0,2.885,0.671,4.12,1.599c1.423,1.07,3.194,2.401,6.522,2.401
		c3.329,0,5.101-1.331,6.524-2.401c1.235-0.928,2.127-1.599,4.121-1.599c1.995,0,2.887,0.671,4.123,1.599
		c1.424,1.07,3.196,2.401,6.525,2.401c3.329,0,5.101-1.331,6.524-2.401c1.235-0.928,2.127-1.599,4.121-1.599
		c1.996,0,2.889,0.671,4.125,1.6c1.424,1.069,3.197,2.4,6.527,2.4c3.331,0,5.103-1.331,6.527-2.4c1.236-0.929,2.129-1.6,4.125-1.6
		c1.104,0,2-0.896,2-2S77.492,10.301,76.387,10.301z"/>
	<path d="M12.502,4c1.993,0,2.885,0.67,4.12,1.599C18.044,6.668,19.816,8,23.144,8c3.329,0,5.101-1.332,6.524-2.401
		C30.903,4.67,31.795,4,33.789,4c1.995,0,2.887,0.671,4.123,1.599C39.336,6.669,41.108,8,44.437,8c3.329,0,5.101-1.332,6.524-2.401
		C52.196,4.67,53.089,4,55.083,4c1.996,0,2.889,0.671,4.125,1.599C60.632,6.669,62.404,8,65.735,8c3.331,0,5.103-1.331,6.527-2.401
		C73.499,4.671,74.392,4,76.387,4c1.104,0,2-0.896,2-2s-0.896-2-2-2c-3.331,0-5.103,1.331-6.527,2.401
		C68.624,3.329,67.731,4,65.735,4c-1.996,0-2.889-0.671-4.125-1.599C60.186,1.331,58.413,0,55.083,0
		c-3.329,0-5.101,1.332-6.524,2.401C47.323,3.33,46.431,4,44.437,4c-1.995,0-2.887-0.671-4.123-1.599C38.89,1.331,37.118,0,33.789,0
		c-3.329,0-5.101,1.332-6.524,2.401C26.03,3.329,25.137,4,23.144,4c-1.993,0-2.884-0.67-4.119-1.599C17.602,1.332,15.83,0,12.502,0
		c-1.104,0-2,0.896-2,2S11.397,4,12.502,4z"/>
</g>
<g>
</g>
<g>
</g>
<g>
</g>
<g>
</g>
<g>
</g>
<g>
</g>
<g>
</g>
<g>
</g>
<g>
</g>
<g>
</g>
<g>
</g>
<g>
</g>
<g>
</g>
<g>
</g>
<g>
</g>
</svg>
