<svg width="61" height="91" viewBox="0 0 61 91" fill="none" xmlns="http://www.w3.org/2000/svg">
	<path d="M30.5 89.5L14 56H46L30.5 89.5Z" fill="white" stroke="black" />
	<rect x="0.5" y="0.5" width="60" height="60" rx="30" fill="white" stroke="black" />
	<path d="M43.5203 12H16.4799C14.0057 12 12 14.0057 12 16.4799V43.5202C12 45.9944 14.0057 48 16.4799 48H43.5203C45.9945 48 48 45.9944 48 43.5202V16.4799C48 14.0057 45.9945 12 43.5203 12ZM45.7206 35.8802V41.808C45.7206 43.9689 43.969 45.7206 41.8082 45.7206H18.1921C16.0312 45.7206 14.2794 43.9689 14.2794 41.808V41.3652C14.236 41.3724 14.1917 41.3772 14.1463 41.3772C13.7059 41.3772 13.349 41.0201 13.349 40.5799V37.3907C13.349 36.9503 13.7059 36.5934 14.1463 36.5934C14.1917 36.5934 14.236 36.5982 14.2794 36.6054V35.8802V35.3362V25.3518V25.2782V24.9715V23.6409C14.236 23.6483 14.1917 23.653 14.1463 23.653C13.7059 23.653 13.349 23.2959 13.349 22.8557V19.6665C13.349 19.2261 13.7059 18.8692 14.1463 18.8692C14.1917 18.8692 14.236 18.8739 14.2794 18.8813V18.1921C14.2794 16.0313 16.0312 14.2795 18.1921 14.2795H41.8082C43.969 14.2795 45.7206 16.0313 45.7206 18.1921V24.9715V35.8802Z" fill="#E0DCD3" />
	<path d="M27.0688 24.0122C27.0688 22.8221 28.0338 21.8577 29.2236 21.8577H29.4198H30.664C31.8542 21.8577 32.8185 22.8221 32.8185 24.0122V24.9713H45.7204V18.1919C45.7204 16.0311 43.9688 14.2793 41.808 14.2793H18.1921C16.0312 14.2793 14.2794 16.0311 14.2794 18.1919V18.8811C14.6562 18.9446 14.9436 19.2715 14.9436 19.6663V22.8555C14.9436 23.2503 14.6562 23.5772 14.2794 23.6407V24.9713H27.0688V24.0122Z" fill="#F7F1E6" />
	<path d="M32.8186 36.6018C32.8186 37.7918 31.8543 38.7565 30.6641 38.7565H29.4198H29.2237C28.0339 38.7565 27.0689 37.7918 27.0689 36.6018V35.8802H14.2794V36.6054C14.6562 36.6689 14.9436 36.9959 14.9436 37.3907V40.5799C14.9436 40.9747 14.6562 41.3016 14.2794 41.3652V41.808C14.2794 43.9689 16.0312 45.7206 18.1921 45.7206H41.8082C43.969 45.7206 45.7206 43.9689 45.7206 41.808V35.8802H32.8186V36.6018Z" fill="#F7F1E6" />
	<path d="M45.9685 25.5629L32.8186 25.5155V27.4322H36.2387C37.4288 27.4322 38.3931 28.3967 38.3931 29.5861V31.0274C38.3931 32.217 37.4288 33.1814 36.2387 33.1814H32.8186V35.3361L45.9685 35.3836V25.5629ZM43.3085 31.8404C42.5973 31.8404 42.0207 31.2638 42.0207 30.5524C42.0207 29.8412 42.5973 29.2646 43.3085 29.2646C44.0198 29.2646 44.5965 29.8412 44.5965 30.5524C44.5966 31.2638 44.0199 31.8404 43.3085 31.8404Z" fill="#E0DCD3" />
	<path d="M27.0688 33.1815H23.6487C22.4594 33.1815 21.4947 32.2171 21.4947 31.0275V29.5862C21.4947 28.3968 22.4594 27.4323 23.6487 27.4323H27.0688V25.5156H13.8907V35.3362H27.0688V33.1815Z" fill="#E0DCD3" />
	<path d="M43.3085 31.8404C44.0198 31.8404 44.5964 31.2638 44.5964 30.5524C44.5964 29.8411 44.0198 29.2645 43.3085 29.2645C42.5972 29.2645 42.0205 29.8411 42.0205 30.5524C42.0205 31.2638 42.5972 31.8404 43.3085 31.8404Z" fill="#2B3237" />
	<path d="M14.9436 22.8556V19.6664C14.9436 19.2716 14.6563 18.9447 14.2795 18.8812C14.2361 18.8738 14.1918 18.8691 14.1464 18.8691C13.706 18.8691 13.3491 19.2261 13.3491 19.6664V22.8556C13.3491 23.2959 13.706 23.6529 14.1464 23.6529C14.1918 23.6529 14.2361 23.6482 14.2795 23.6408C14.6563 23.5773 14.9436 23.2504 14.9436 22.8556Z" fill="#2B3237" />
	<path d="M14.9436 40.5799V37.3907C14.9436 36.9959 14.6563 36.6689 14.2795 36.6053C14.2361 36.5981 14.1918 36.5934 14.1464 36.5934C13.706 36.5934 13.3491 36.9504 13.3491 37.3907V40.5799C13.3491 41.0202 13.706 41.3772 14.1464 41.3772C14.1918 41.3772 14.2361 41.3724 14.2795 41.3652C14.6563 41.3016 14.9436 40.9747 14.9436 40.5799Z" fill="#2B3237" />
	<path d="M32.8186 25.5155H45.7206V25.2781V24.9714H32.8186V25.5155Z" fill="white" />
	<path d="M27.0688 25.5155V24.9714H14.2794V25.2781V25.5155H27.0688Z" fill="white" />
	<path d="M27.0688 35.3362H14.2794V35.8802H27.0688V35.3362Z" fill="white" />
	<path d="M45.7205 35.3362H32.8186V35.8802H45.7205V35.3362Z" fill="white" />
	<path d="M32.8186 24.9714V24.0123C32.8186 22.8222 31.8544 21.8578 30.6642 21.8578H29.4199H29.2237C28.0339 21.8578 27.0689 22.8222 27.0689 24.0123V24.9714V25.5155V27.4322H23.6488C22.4595 27.4322 21.4948 28.3967 21.4948 29.5861V31.0274C21.4948 32.217 22.4595 33.1814 23.6488 33.1814H27.0689V35.3361V35.8801V36.6018C27.0689 37.7917 28.0339 38.7564 29.2237 38.7564H29.4199H30.6642C31.8544 38.7564 32.8186 37.7917 32.8186 36.6018V35.8801V35.3361V33.1814H36.2387C37.4288 33.1814 38.3931 32.217 38.3931 31.0274V29.5861C38.3931 28.3967 37.4288 27.4322 36.2387 27.4322H32.8186V25.5155V24.9714Z" fill="#D43D21" />
	<rect x="8.20334" y="50.516" width="60.1267" height="2" transform="rotate(-45 8.20334 50.516)" fill="#FF0000" />
</svg>
